<svg width="104" height="104" viewBox="0 0 104 104" fill="none" xmlns="http://www.w3.org/2000/svg">
<rect x="3" width="101" height="103" rx="45" fill="#80CAFF"/>
<g clip-path="url(#clip0_211_266)">
<g filter="url(#filter0_f_211_266)">
<path d="M40.5001 48.5C7.70012 42.1 4.83347 56.8333 7.50014 65H104V1H55.5C33.5 1.4 36.3334 32.8334 40.5001 48.5Z" fill="#80CAFF"/>
</g>
<g clip-path="url(#clip1_211_266)">
<path d="M104 104V0.000491035C104 0.000491035 76.7675 0.000489809 42.8179 0.000488281C29.2217 0.000487669 35.0486 38.5005 35.0486 38.5005C35.0486 38.5005 3.00049 34.0005 3.00049 47.9995C3.00049 74.1074 3.00049 104 3.00049 104C3.00049 104 24.4311 104 45.8618 104C67.2925 104 104 104 104 104Z" fill="#80CAFF"/>
<path d="M104 104V0.000491035C104 0.000491035 76.7675 0.000489809 42.8179 0.000488281C29.2217 0.000487669 35.0486 38.5005 35.0486 38.5005C35.0486 38.5005 3.00049 34.0005 3.00049 47.9995C3.00049 74.1074 3.00049 104 3.00049 104C3.00049 104 24.4311 104 45.8618 104C67.2925 104 104 104 104 104Z" fill="url(#paint0_linear_211_266)"/>
<path d="M104 104V0.000491035C104 0.000491035 76.7675 0.000489809 42.8179 0.000488281C29.2217 0.000487669 35.0486 38.5005 35.0486 38.5005C35.0486 38.5005 3.00049 34.0005 3.00049 47.9995C3.00049 74.1074 3.00049 104 3.00049 104C3.00049 104 24.4311 104 45.8618 104C67.2925 104 104 104 104 104Z" fill="url(#paint1_linear_211_266)" fill-opacity="0.15"/>
</g>
</g>
<defs>
<filter id="filter0_f_211_266" x="-6.26074" y="-12" width="123.261" height="90" filterUnits="userSpaceOnUse" color-interpolation-filters="sRGB">
<feFlood flood-opacity="0" result="BackgroundImageFix"/>
<feBlend mode="normal" in="SourceGraphic" in2="BackgroundImageFix" result="shape"/>
<feGaussianBlur stdDeviation="6.5" result="effect1_foregroundBlur_211_266"/>
</filter>
<linearGradient id="paint0_linear_211_266" x1="3.00049" y1="52.0005" x2="89.061" y2="52.0005" gradientUnits="userSpaceOnUse">
<stop stop-color="white" stop-opacity="0"/>
<stop offset="1" stop-color="white" stop-opacity="0.18"/>
</linearGradient>
<linearGradient id="paint1_linear_211_266" x1="255.5" y1="234.5" x2="2.79675" y2="25.8017" gradientUnits="userSpaceOnUse">
<stop offset="0.718538" stop-opacity="0"/>
<stop offset="1"/>
</linearGradient>
<clipPath id="clip0_211_266">
<rect width="104" height="104" fill="white"/>
</clipPath>
<clipPath id="clip1_211_266">
<rect width="101" height="104" fill="white" transform="translate(3)"/>
</clipPath>
</defs>
</svg>
