<svg width="104" height="100" viewBox="0 0 104 100" fill="none" xmlns="http://www.w3.org/2000/svg">
<path d="M4 0.5H100C101.933 0.5 103.5 2.067 103.5 4V99.5H0.5V4C0.5 2.06701 2.067 0.5 4 0.5Z" fill="#FFF0BA" stroke="#FFCB12"/>
<mask id="path-2-inside-1_211_481" fill="white">
<path d="M3 7C3 4.79086 4.79086 3 7 3H40C42.2091 3 44 4.79086 44 7V15C44 17.2091 42.2091 19 40 19H7C4.79086 19 3 17.2091 3 15V7Z"/>
</mask>
<path d="M3 7C3 4.79086 4.79086 3 7 3H40C42.2091 3 44 4.79086 44 7V15C44 17.2091 42.2091 19 40 19H7C4.79086 19 3 17.2091 3 15V7Z" fill="#FFCB12"/>
<path d="M2 7C2 4.23858 4.23858 2 7 2H40C42.7614 2 45 4.23858 45 7H43C43 5.34315 41.6569 4 40 4H7C5.34315 4 4 5.34315 4 7H2ZM45 15C45 17.7614 42.7614 20 40 20H7C4.23858 20 2 17.7614 2 15H4C4 16.6569 5.34315 18 7 18H40C41.6569 18 43 16.6569 43 15H45ZM7 20C4.23858 20 2 17.7614 2 15V7C2 4.23858 4.23858 2 7 2V4C5.34315 4 4 5.34315 4 7V15C4 16.6569 5.34315 18 7 18V20ZM40 2C42.7614 2 45 4.23858 45 7V15C45 17.7614 42.7614 20 40 20V18C41.6569 18 43 16.6569 43 15V7C43 5.34315 41.6569 4 40 4V2Z" fill="#FFCB12" mask="url(#path-2-inside-1_211_481)"/>
<path d="M13.0033 12.816C13.0033 13.0933 12.9339 13.3253 12.7953 13.512C12.6566 13.6987 12.4593 13.84 12.2033 13.936C11.9473 14.032 11.6433 14.08 11.2913 14.08C10.9926 14.08 10.7339 14.056 10.5153 14.008C10.3019 13.96 10.1126 13.8933 9.94725 13.808V13.168C10.1179 13.2533 10.3233 13.3333 10.5633 13.408C10.8086 13.4773 11.0566 13.512 11.3073 13.512C11.6646 13.512 11.9233 13.456 12.0833 13.344C12.2433 13.2267 12.3233 13.072 12.3233 12.88C12.3233 12.7733 12.2939 12.6773 12.2353 12.592C12.1766 12.5067 12.0699 12.4213 11.9153 12.336C11.7659 12.2507 11.5499 12.1547 11.2673 12.048C10.9899 11.9413 10.7526 11.8347 10.5553 11.728C10.3579 11.6213 10.2059 11.4933 10.0993 11.344C9.99258 11.1947 9.93925 11.0027 9.93925 10.768C9.93925 10.4053 10.0859 10.1253 10.3793 9.928C10.6779 9.73067 11.0673 9.632 11.5473 9.632C11.8086 9.632 12.0513 9.65867 12.2753 9.712C12.5046 9.76 12.7179 9.82933 12.9153 9.92L12.6753 10.48C12.5579 10.4267 12.4326 10.3813 12.2993 10.344C12.1713 10.3013 12.0406 10.2693 11.9073 10.248C11.7739 10.2213 11.6379 10.208 11.4993 10.208C11.2113 10.208 10.9899 10.256 10.8353 10.352C10.6859 10.4427 10.6113 10.568 10.6113 10.728C10.6113 10.8453 10.6459 10.9467 10.7153 11.032C10.7846 11.112 10.8993 11.192 11.0593 11.272C11.2246 11.3467 11.4433 11.4373 11.7153 11.544C11.9873 11.6453 12.2193 11.7493 12.4113 11.856C12.6033 11.9627 12.7499 12.0933 12.8513 12.248C12.9526 12.3973 13.0033 12.5867 13.0033 12.816ZM15.7032 9.632C16.0712 9.632 16.3859 9.712 16.6472 9.872C16.9139 10.032 17.1165 10.2587 17.2552 10.552C17.3992 10.84 17.4712 11.1787 17.4712 11.568V11.992H14.5352C14.5459 12.4773 14.6685 12.848 14.9032 13.104C15.1432 13.3547 15.4765 13.48 15.9032 13.48C16.1752 13.48 16.4152 13.456 16.6232 13.408C16.8365 13.3547 17.0552 13.28 17.2792 13.184V13.8C17.0605 13.896 16.8445 13.9653 16.6312 14.008C16.4179 14.056 16.1645 14.08 15.8712 14.08C15.4659 14.08 15.1059 13.9973 14.7912 13.832C14.4819 13.6667 14.2392 13.4213 14.0632 13.096C13.8925 12.7653 13.8072 12.3627 13.8072 11.888C13.8072 11.4187 13.8845 11.016 14.0392 10.68C14.1992 10.344 14.4205 10.0853 14.7032 9.904C14.9912 9.72267 15.3245 9.632 15.7032 9.632ZM15.6952 10.208C15.3592 10.208 15.0925 10.3173 14.8952 10.536C14.7032 10.7493 14.5885 11.048 14.5512 11.432H16.7352C16.7352 11.1867 16.6979 10.9733 16.6232 10.792C16.5485 10.6107 16.4339 10.4693 16.2792 10.368C16.1299 10.2613 15.9352 10.208 15.6952 10.208ZM20.2828 14.08C19.9041 14.08 19.5655 14.0027 19.2668 13.848C18.9735 13.6933 18.7415 13.4533 18.5708 13.128C18.4055 12.8027 18.3228 12.3867 18.3228 11.88C18.3228 11.352 18.4108 10.9227 18.5868 10.592C18.7628 10.2613 19.0001 10.0187 19.2988 9.864C19.6028 9.70933 19.9468 9.632 20.3308 9.632C20.5495 9.632 20.7601 9.656 20.9628 9.704C21.1655 9.74667 21.3308 9.8 21.4588 9.864L21.2428 10.448C21.1148 10.4 20.9655 10.3547 20.7948 10.312C20.6241 10.2693 20.4641 10.248 20.3148 10.248C20.0268 10.248 19.7895 10.3093 19.6028 10.432C19.4161 10.5547 19.2775 10.736 19.1868 10.976C19.0961 11.216 19.0508 11.5147 19.0508 11.872C19.0508 12.2133 19.0961 12.504 19.1868 12.744C19.2775 12.984 19.4135 13.1653 19.5948 13.288C19.7761 13.4107 20.0028 13.472 20.2748 13.472C20.5095 13.472 20.7148 13.448 20.8908 13.4C21.0721 13.352 21.2375 13.2933 21.3868 13.224V13.848C21.2428 13.9227 21.0828 13.9787 20.9068 14.016C20.7361 14.0587 20.5281 14.08 20.2828 14.08ZM23.8386 13.504C23.9452 13.504 24.0546 13.496 24.1666 13.48C24.2786 13.4587 24.3692 13.4373 24.4386 13.416V13.952C24.3639 13.9893 24.2572 14.0187 24.1186 14.04C23.9799 14.0667 23.8466 14.08 23.7186 14.08C23.4946 14.08 23.2866 14.0427 23.0946 13.968C22.9079 13.888 22.7559 13.752 22.6386 13.56C22.5212 13.368 22.4626 13.0987 22.4626 12.752V10.256H21.8546V9.92L22.4706 9.64L22.7506 8.728H23.1666V9.712H24.4066V10.256H23.1666V12.736C23.1666 12.9973 23.2279 13.192 23.3506 13.32C23.4786 13.4427 23.6412 13.504 23.8386 13.504ZM26.0012 9.712V14H25.2972V9.712H26.0012ZM25.6572 8.104C25.7639 8.104 25.8572 8.14133 25.9372 8.216C26.0225 8.28533 26.0652 8.39733 26.0652 8.552C26.0652 8.70133 26.0225 8.81333 25.9372 8.888C25.8572 8.96267 25.7639 9 25.6572 9C25.5399 9 25.4412 8.96267 25.3612 8.888C25.2812 8.81333 25.2412 8.70133 25.2412 8.552C25.2412 8.39733 25.2812 8.28533 25.3612 8.216C25.4412 8.14133 25.5399 8.104 25.6572 8.104ZM31.0877 11.848C31.0877 12.2053 31.0397 12.5227 30.9437 12.8C30.853 13.072 30.7197 13.304 30.5437 13.496C30.373 13.688 30.1624 13.8347 29.9117 13.936C29.6664 14.032 29.3917 14.08 29.0877 14.08C28.805 14.08 28.5437 14.032 28.3037 13.936C28.0637 13.8347 27.8557 13.688 27.6797 13.496C27.5037 13.304 27.365 13.072 27.2637 12.8C27.1677 12.5227 27.1197 12.2053 27.1197 11.848C27.1197 11.3733 27.1997 10.9733 27.3597 10.648C27.5197 10.3173 27.749 10.0667 28.0477 9.896C28.3464 9.72 28.701 9.632 29.1117 9.632C29.501 9.632 29.8424 9.72 30.1357 9.896C30.4344 10.0667 30.6664 10.3173 30.8317 10.648C31.0024 10.9733 31.0877 11.3733 31.0877 11.848ZM27.8477 11.848C27.8477 12.184 27.8904 12.4773 27.9757 12.728C28.0664 12.9733 28.205 13.1627 28.3917 13.296C28.5784 13.4293 28.8157 13.496 29.1037 13.496C29.3917 13.496 29.629 13.4293 29.8157 13.296C30.0024 13.1627 30.1384 12.9733 30.2237 12.728C30.3144 12.4773 30.3597 12.184 30.3597 11.848C30.3597 11.5067 30.3144 11.216 30.2237 10.976C30.133 10.736 29.9944 10.552 29.8077 10.424C29.6264 10.2907 29.389 10.224 29.0957 10.224C28.6584 10.224 28.341 10.368 28.1437 10.656C27.9464 10.944 27.8477 11.3413 27.8477 11.848ZM34.2674 9.632C34.7794 9.632 35.1661 9.75733 35.4274 10.008C35.6888 10.2533 35.8194 10.6533 35.8194 11.208V14H35.1234V11.256C35.1234 10.9093 35.0461 10.6507 34.8914 10.48C34.7368 10.3093 34.4941 10.224 34.1634 10.224C33.6888 10.224 33.3608 10.3573 33.1794 10.624C32.9981 10.8907 32.9074 11.2747 32.9074 11.776V14H32.2034V9.712H32.7714L32.8754 10.296H32.9154C33.0114 10.1467 33.1288 10.024 33.2674 9.928C33.4114 9.82667 33.5688 9.752 33.7394 9.704C33.9101 9.656 34.0861 9.632 34.2674 9.632Z" fill="black"/>
</svg>
